<?xml version="1.0" encoding="utf-8"?>
<!-- Generator: Adobe Illustrator 21.0.0, SVG Export Plug-In . SVG Version: 6.00 Build 0)  -->
<svg version="1.1" id="Layer_1" xmlns="http://www.w3.org/2000/svg" xmlns:xlink="http://www.w3.org/1999/xlink" x="0px" y="0px"
	 viewBox="0 0 30 30" style="enable-background:new 0 0 30 30;" xml:space="preserve">
<style type="text/css">
	.st0{fill:#FFFFFF;}
</style>
<path class="st0" d="M26,0H4C1.8,0,0,1.8,0,4V26c0,2.2,1.8,4,4,4h10.8l0-10.7h-2.8c-0.4,0-0.7-0.3-0.7-0.7l0-3.5
	c0-0.4,0.3-0.7,0.7-0.7h2.8v-3.3c0-3.9,2.4-6,5.8-6h2.8c0.4,0,0.7,0.3,0.7,0.7v2.9c0,0.4-0.3,0.7-0.7,0.7h-1.7
	c-1.9,0-2.2,0.9-2.2,2.2v2.9h4.1c0.4,0,0.7,0.3,0.7,0.7l-0.4,3.5c0,0.3-0.3,0.6-0.7,0.6h-3.7l0,10.7H26c2.2,0,4-1.8,4-4V4
	C30,1.8,28.2,0,26,0z"/>
</svg>
