<?xml version="1.0" encoding="utf-8"?>
<!-- Generator: Adobe Illustrator 21.0.0, SVG Export Plug-In . SVG Version: 6.00 Build 0)  -->
<svg version="1.1" id="Layer_1" xmlns="http://www.w3.org/2000/svg" xmlns:xlink="http://www.w3.org/1999/xlink" x="0px" y="0px"
	 viewBox="0 0 30 30" style="enable-background:new 0 0 30 30;" xml:space="preserve">
<style type="text/css">
	.st0{fill:#FFFFFF;}
</style>
<g>
	<path class="st0" d="M21.1,0H8.9C4,0,0,4,0,8.9v12.1C0,26,4,30,8.9,30h12.1c4.9,0,8.9-4,8.9-8.9V8.9C30,4,26,0,21.1,0z M27,21.1
		L27,21.1c0,3.3-2.7,5.9-5.9,5.9H8.9C5.7,27,3,24.3,3,21.1V8.9C3,5.7,5.7,3,8.9,3h12.1C24.3,3,27,5.7,27,8.9V21.1z"/>
	<path class="st0" d="M15,7.2c-4.3,0-7.8,3.5-7.8,7.8s3.5,7.8,7.8,7.8s7.8-3.5,7.8-7.8S19.3,7.2,15,7.2z M15,19.7
		c-2.6,0-4.7-2.1-4.7-4.7s2.1-4.7,4.7-4.7s4.7,2.1,4.7,4.7S17.6,19.7,15,19.7z"/>
	<circle class="st0" cx="22.8" cy="7.3" r="1.9"/>
</g>
</svg>
