<?xml version="1.0" encoding="utf-8"?>
<!-- Generator: Adobe Illustrator 23.0.3, SVG Export Plug-In . SVG Version: 6.00 Build 0)  -->
<svg version="1.1" id="Layer_1" xmlns="http://www.w3.org/2000/svg" xmlns:xlink="http://www.w3.org/1999/xlink" x="0px" y="0px"
	 viewBox="0 0 30 30" style="enable-background:new 0 0 30 30;" xml:space="preserve">
<style type="text/css">
	.st0{fill:#FFFFFF;}
</style>
<path class="st0" d="M0,2.5v25C0,28.9,1.1,30,2.5,30h25c1.4,0,2.5-1.1,2.5-2.5v-25C30,1.1,28.9,0,27.5,0h-25C1.1,0,0,1.1,0,2.5z
	 M10,23.8H6.3V10H10V23.8z M8.1,8.4c-1.2,0-2.2-1-2.2-2.2S6.9,4,8.1,4s2.2,1,2.2,2.2S9.3,8.4,8.1,8.4z M25,23.8h-3.8c0,0,0-7,0-7
	c0-4.2-5-3.9-5,0v7h-3.8V10h3.8c0,0,0,2.2,0,2.2C18,9,25,8.7,25,15.3C25,15.3,25,23.8,25,23.8z"/>
</svg>
