<?xml version="1.0" encoding="utf-8"?>
<!-- Generator: Adobe Illustrator 21.0.0, SVG Export Plug-In . SVG Version: 6.00 Build 0)  -->
<svg version="1.1" id="Layer_1" xmlns="http://www.w3.org/2000/svg" xmlns:xlink="http://www.w3.org/1999/xlink" x="0px" y="0px"
	 viewBox="0 0 224 65" style="enable-background:new 0 0 224 65;" xml:space="preserve">
<style type="text/css">
	.st0{fill:#FF5A5F;}
	.st1{fill:#FFFFFF;}
</style>
<title>Asset 1</title>
<path class="st0" d="M21.3,1.5C22.5,3,23,6.6,23.1,9.2c-2.2-0.4-6-1.3-7.4-2.9c-1.3-1.6-1.1-3.9,0.4-5.2c0.7-0.6,1.5-0.9,2.4-0.9
	C19.6,0.2,20.6,0.7,21.3,1.5z"/>
<path class="st0" d="M33.7,1.1c1.6,1.4,1.7,3.7,0.4,5.2c-1.4,1.6-5.2,2.5-7.4,2.9c0.1-2.7,0.6-6.3,1.8-7.7
	C29.9-0.1,32.2-0.2,33.7,1.1z"/>
<path class="st0" d="M0.2,12c0,0,2.3,11.1,2.2,22.1c-0.1,8.8-1.6,17.6-2.2,20.8C0.1,55.8,0,56.2,0,56.2h9.2c1.1,0,2,0.9,1.9,2v6.2
	c0,0.2,0.3,0.4,0.5,0.3l8.3-4.5l3.8-2c2.3-1.2,4.8-1.9,7.4-1.9l18.5,0.1c0,0-2.3-11.1-2.2-22.1c0.1-8.8,1.6-17.6,2.2-20.8
	c0.1-0.8,0.2-1.3,0.2-1.3L0.2,12z"/>
<path class="st1" d="M39.4,33.2c-0.4,3-1.8,5.8-3.9,8c-2.4,2.5-5.5,4.1-8.9,4.5c-0.5,0.1-1.1,0.1-1.6,0.1h-0.4c-0.3,0-0.6,0-0.9,0
	s-0.7-0.1-1-0.1c-2.9-0.4-5.5-1.7-7.7-3.6c-2.9-2.6-4.7-6.4-4.9-10.3c0-0.5,0.2-1,0.5-1.4s0.8-0.6,1.3-0.6s1,0.1,1.4,0.5
	c0.4,0.3,0.6,0.8,0.6,1.3c0.1,2.9,1.4,5.7,3.6,7.6c1.6,1.4,3.6,2.4,5.7,2.7c0.5,0.1,0.9,0.1,1.4,0.1s1,0,1.5-0.1
	c2.5-0.3,4.9-1.5,6.6-3.3c1.5-1.6,2.5-3.7,2.9-5.9c0-0.2,0-0.3,0-0.5s0-0.4,0-0.5c0-0.5,0.2-1,0.6-1.3c0.4-0.3,0.9-0.5,1.4-0.5
	s1,0.2,1.3,0.6s0.5,0.9,0.5,1.4C39.5,32.1,39.5,32.7,39.4,33.2z"/>
<path class="st0" d="M67.3,23.9h4.4c0.3,0,0.5,0.2,0.5,0.5v4.8c0,0.3-0.2,0.5-0.5,0.5h-4.4c-0.3,0-0.5,0.2-0.5,0.5v2.5v6.8
	c0,2.5,1.5,2.8,2.4,2.8c0.3,0,0.5,0.2,0.5,0.5v4.8c0,0.3-0.2,0.5-0.5,0.5h-0.8c-4.4,0-7.9-3.6-8-8v-0.4V17.3c0-0.3,0.2-0.5,0.5-0.5
	h5.4c0.3,0,0.5,0.2,0.5,0.5v6.1C66.8,23.7,67,23.9,67.3,23.9z"/>
<path class="st0" d="M113.5,34.2c-0.1,0.2-0.1,0.4,0,0.6l8.4,12.4c0.2,0.3-0.1,0.7-0.4,0.7h-6.4c-0.2,0-0.3-0.1-0.4-0.2l-5.4-8
	c-0.2-0.3-0.5-0.3-0.7-0.1l-1.5,1.6c0,0,0,0.1,0,0.2s-0.1,0.1-0.1,0.2v5.9c0,0.2-0.2,0.4-0.4,0.4H101c-0.2,0-0.4-0.2-0.4-0.4V17.2
	c0-0.2,0.2-0.4,0.4-0.4h5.7c0.2,0,0.4,0.2,0.4,0.4v14.5c0,0.4,0.5,0.6,0.8,0.3l5.9-6.5c0-0.1,0.2-0.2,0.3-0.2h6.7
	c0.4,0,0.6,0.4,0.3,0.7L113.5,34.2z"/>
<path class="st0" d="M94,28c-2.2-2.1-5.1-3.2-8.5-3.2S79.2,26,77,28.2c-2.2,2.3-3.4,5-3.3,8.3c0,3.3,1.2,6,3.4,8.2
	c2.3,2.2,5.1,3.3,8.5,3.3s6.3-1.2,8.5-3.4s3.4-5,3.3-8.3C97.4,33,96.2,30.3,94,28z M89.6,40.9c-1,1.2-2.4,1.8-4,1.8s-3-0.6-4-1.7
	c-1.1-1.2-1.6-2.6-1.6-4.5c0-1.8,0.5-3.4,1.5-4.5c1-1.2,2.4-1.8,4-1.8s3,0.6,4,1.7c1.1,1.2,1.6,2.7,1.6,4.5
	C91.2,38.2,90.6,39.7,89.6,40.9z"/>
<path class="st0" d="M182,26.8c-1.7-1.4-4-2-6.7-2c-3.7,0-6.9,1-9.8,3c-0.2,0.1-0.2,0.4-0.1,0.6l2.3,3.3c0.1,0.2,0.4,0.2,0.6,0.1
	c0.8-0.5,1.7-1,2.7-1.4c1.2-0.4,2.4-0.7,3.5-0.7c2.2,0,3.5,0.9,3.8,2.8V33v0.2c-0.1,0.2-0.2,0.3-0.4,0.3h-4.2
	c-2.9,0-5.2,0.6-6.9,1.8s-2.5,2.9-2.5,5.2s0.8,4.1,2.5,5.5c1.6,1.4,3.6,2.1,6,2c2.3,0,4.2-1,5.8-2.8c0.1-0.1,0.2,0,0.2,0.1v2.3
	c0,0.2,0.2,0.4,0.4,0.4h5c0.2,0,0.4-0.2,0.4-0.5V33.2C184.7,30.3,183.7,28.1,182,26.8z M178.4,39c-0.1,1.2-0.5,2.1-1.4,2.8
	s-1.8,1-2.9,1c-1.1,0-2-0.2-2.6-0.6c-0.6-0.4-0.9-1-0.9-1.9c0-1.6,1.2-2.4,3.8-2.4h3.5c0.3,0,0.5,0.2,0.5,0.5L178.4,39L178.4,39z"/>
<path class="st0" d="M223.9,47.4l-8.4-12.6c-0.1-0.2-0.1-0.4,0-0.6l7.6-8.2c0.3-0.3,0.1-0.7-0.3-0.7h-6.7c-0.1,0-0.3,0.1-0.3,0.2
	l-5.9,6.5c-0.3,0.3-0.8,0.1-0.8-0.3V17.2c0-0.2-0.2-0.4-0.4-0.4h-5.6c-0.2,0-0.4,0.2-0.4,0.4v30.3c0,0.2,0.2,0.4,0.4,0.4h5.6
	c0.2,0,0.4-0.2,0.4-0.4v-5.9c0-0.1,0-0.1,0.1-0.2s0.1-0.2,0.1-0.2l1.5-1.6c0.2-0.2,0.5-0.2,0.7,0.1l5.4,8c0.1,0.1,0.2,0.2,0.4,0.2
	h6.4C223.9,48,224.1,47.7,223.9,47.4z"/>
<path class="st0" d="M142.8,28c-2.2-2.1-5.1-3.2-8.5-3.2s-6.3,1.2-8.5,3.4c-2.2,2.3-3.4,5-3.3,8.3c0,3.3,1.2,6,3.4,8.2
	c2.3,2.2,5.1,3.3,8.5,3.3s6.3-1.2,8.5-3.4s3.4-5,3.3-8.3C146.2,33,145,30.3,142.8,28z M138.4,40.9c-1,1.2-2.4,1.8-4,1.8
	s-3-0.6-4-1.7c-1.1-1.2-1.6-2.6-1.6-4.5c0-1.8,0.5-3.4,1.5-4.5c1-1.2,2.4-1.8,4-1.8s3,0.6,4,1.7c1.1,1.2,1.6,2.7,1.6,4.5
	C140,38.2,139.5,39.7,138.4,40.9z"/>
<path class="st0" d="M196,16.8h-4.7c-0.5,0-0.9,0.4-0.9,0.9v29.9c0,0.2,0.2,0.4,0.4,0.4h5.6c0.2,0,0.4-0.2,0.4-0.4V17.7
	C196.9,17.2,196.5,16.8,196,16.8z"/>
<path class="st0" d="M161.8,23.9h-4.4c-0.3,0-0.5-0.2-0.5-0.5v-6.1c0-0.3-0.2-0.5-0.5-0.5H151c-0.3,0-0.5,0.2-0.5,0.5v22.4v0.4
	c0.1,4.4,3.6,8,8,8h0.8c0.3,0,0.5-0.2,0.5-0.5v-4.8c0-0.3-0.2-0.5-0.5-0.5c-0.9,0-2.4-0.3-2.4-2.8v-6.8v-2.5c0-0.3,0.2-0.5,0.5-0.5
	h4.4c0.3,0,0.5-0.2,0.5-0.5v-4.8C162.3,24.1,162.1,23.9,161.8,23.9z"/>
</svg>
