<?xml version="1.0" encoding="utf-8"?>
<!-- Generator: Adobe Illustrator 23.0.3, SVG Export Plug-In . SVG Version: 6.00 Build 0)  -->
<svg version="1.1" id="White" xmlns="http://www.w3.org/2000/svg" xmlns:xlink="http://www.w3.org/1999/xlink" x="0px" y="0px"
	 viewBox="0 0 30 30" style="enable-background:new 0 0 30 30;" xml:space="preserve">
<style type="text/css">
	.st0{fill:#FFFFFF;}
</style>
<path class="st0" d="M26.3,30H3.8C1.7,30,0,28.3,0,26.3V3.8C0,1.7,1.7,0,3.8,0h22.5C28.3,0,30,1.7,30,3.8v22.5
	C30,28.3,28.3,30,26.3,30z M11.5,22.6c7.1,0,10.9-5.9,10.9-10.9c0-0.2,0-0.3,0-0.5c0.8-0.5,1.4-1.2,1.9-2c-0.7,0.3-1.4,0.5-2.2,0.6
	c0.8-0.5,1.4-1.2,1.7-2.1c-0.7,0.4-1.6,0.8-2.4,0.9c-0.7-0.8-1.7-1.2-2.8-1.2c-2.1,0-3.8,1.7-3.8,3.8c0,0.3,0,0.6,0.1,0.9
	c-3.2-0.2-6-1.7-7.9-4C6.6,8.7,6.4,9.3,6.4,10c0,1.3,0.7,2.5,1.7,3.2c-0.6,0-1.2-0.2-1.7-0.5c0,0,0,0,0,0.1c0,1.9,1.3,3.4,3.1,3.8
	c-0.3,0.1-0.7,0.1-1,0.1c-0.2,0-0.5,0-0.7-0.1c0.5,1.5,1.9,2.6,3.6,2.7c-1.3,1-3,1.6-4.8,1.6c-0.3,0-0.6,0-0.9-0.1
	C7.3,22,9.4,22.6,11.5,22.6"/>
</svg>
